<svg xmlns="http://www.w3.org/2000/svg" width="30" height="29" viewBox="0 0 30 29">
    <g fill="#FFF" fill-rule="nonzero">
        <path d="M29.247 25.767h-.545a3.002 3.002 0 0 0-2.955-2.5h-4a3.003 3.003 0 0 0-2.955 2.5h-.545a.5.5 0 0 0-.5.5v2a.5.5 0 0 0 .5.5h11a.5.5 0 0 0 .5-.5v-2a.5.5 0 0 0-.5-.5zm-7.5-1.5h4c.93 0 1.714.638 1.937 1.5H19.81a2.004 2.004 0 0 1 1.937-1.5zm7 3.5h-10v-1h10v1zM20.85 19.87l5-5a2.267 2.267 0 1 0-2.483-3.69l-2.766-2.766-2.5-2.5-2.767-2.767a2.269 2.269 0 0 0-.483-2.483 2.269 2.269 0 0 0-3.207 0l-5 5a2.27 2.27 0 0 0 0 3.207 2.258 2.258 0 0 0 2.483.483l2.767 2.767.132.132L.707 22.7A2.18 2.18 0 0 0 0 24.272a2.18 2.18 0 0 0 .644 1.599c.416.416.966.644 1.553.644h.045a2.181 2.181 0 0 0 1.572-.707l10.448-11.32.132.133 2.766 2.766a2.269 2.269 0 0 0 .484 2.484 2.258 2.258 0 0 0 1.603.663c.581 0 1.162-.22 1.604-.663zm-3.103-3.31l-2.293-2.293 4.793-4.793 2.293 2.293-4.793 4.793zm1.793-7.793l-4.793 4.793-.146-.146-1.5-1.5-.147-.147 4.793-4.793 1.793 1.793zM7.35 8.164a1.269 1.269 0 0 1 0-1.793l5-5c.248-.247.573-.37.897-.37a1.269 1.269 0 0 1 .896 2.163l-5 5a1.27 1.27 0 0 1-1.792 0zm7.397-4.19l2.293 2.293-4.793 4.793-2.293-2.293 4.793-4.793zM3.08 25.13a1.187 1.187 0 0 1-.857.386 1.16 1.16 0 0 1-.871-.35A1.19 1.19 0 0 1 1 24.292a1.19 1.19 0 0 1 .385-.857L12.733 12.96l.82.82L3.08 25.13zm15.272-7.758l5-5c.247-.247.572-.37.896-.37a1.269 1.269 0 0 1 .896 2.164l-5 4.999a1.269 1.269 0 0 1-1.793-1.793zM26.747 18.267h2v1h-2zM26.394 16.414l1.5-1.5.707.707-1.5 1.5zM26.394 21.121l.707-.707 1.5 1.5-.707.707z"/>
    </g>
</svg>
