<svg xmlns="http://www.w3.org/2000/svg" width="24" height="25" viewBox="0 0 24 25">
    <g fill="#FFF" fill-rule="nonzero">
        <path d="M20.182 2.174h-.546V1.63C19.636.707 18.927 0 18 0c-.927 0-1.636.707-1.636 1.63v.544H7.636V1.63C7.636.707 6.927 0 6 0c-.927 0-1.636.707-1.636 1.63v.544h-.546A3.788 3.788 0 0 0 0 5.978v15.218C0 23.316 1.69 25 3.818 25h16.364A3.788 3.788 0 0 0 24 21.196V5.978c0-2.12-1.69-3.804-3.818-3.804zm-2.727-.544c0-.326.218-.543.545-.543.327 0 .545.217.545.543v2.174c0 .326-.218.544-.545.544-.327 0-.545-.218-.545-.544V1.63zM6 1.087c.327 0 .545.217.545.543v2.174c0 .326-.218.544-.545.544-.327 0-.545-.218-.545-.544V1.63c0-.326.218-.543.545-.543zM3.818 3.261h.546v.543c0 .924.709 1.63 1.636 1.63.927 0 1.636-.706 1.636-1.63v-.543h8.728v.543c0 .924.709 1.63 1.636 1.63.927 0 1.636-.706 1.636-1.63v-.543h.546a2.696 2.696 0 0 1 2.727 2.717v1.63H1.091v-1.63c0-1.521 1.2-2.717 2.727-2.717zM22.91 21.196c0 1.521-1.2 2.717-2.727 2.717H3.818a2.696 2.696 0 0 1-2.727-2.717v-12.5h21.818v12.5z"/>
        <path d="M5.455 13.043h13.09c.328 0 .546-.217.546-.543 0-.326-.218-.543-.546-.543H5.455c-.328 0-.546.217-.546.543 0 .326.218.543.546.543zM5.455 16.848h13.09c.328 0 .546-.218.546-.544 0-.326-.218-.543-.546-.543H5.455c-.328 0-.546.217-.546.543 0 .326.218.544.546.544zM5.455 20.652h13.09c.328 0 .546-.217.546-.543 0-.326-.218-.544-.546-.544H5.455c-.328 0-.546.218-.546.544 0 .326.218.543.546.543z"/>
    </g>
</svg>
